# Alias OBJ Model File
# Exported from SketchUp, (c) 2000-2012 Trimble Navigation Limited
# File units = inches

mtllib ratnik-1.mtl

g Mesh1 Model

usemtl FrontColor
v -1.51029 0 -1.51029
vt 1.51029 1.51029
vn 0 -1 -0
v 1.30785e-016 0 -2.13588
vt -1.30785e-016 2.13588
v 1.51029 0 -1.51029
vt -1.51029 1.51029
v 2.13588 0 -0
vt -2.13588 0
v 1.51029 0 1.51029
vt -1.51029 -1.51029
v -3.92354e-016 0 2.13588
vt 3.92354e-016 -2.13588
v -1.51029 0 1.51029
vt 1.51029 -1.51029
v -2.13588 0 -2.6157e-016
vt 2.13588 2.6157e-016
f 1/1/1 2/2/1 3/3/1 4/4/1 5/5/1 6/6/1 7/7/1 8/8/1 

vt 0.817365 -0.55269
vn -0.367367 0.280085 -0.886901
v -1.10251 1.82611 -1.10251
vt 0.596677 1.34955
v 9.54729e-017 1.82611 -1.55919
vt -0.596677 1.34955
vt -0.817365 -0.55269
f 1/9/2 9/10/2 10/11/2 2/12/2 

v -1.56014 0.28292 -1.17425
vt -0.487824 -0.257974
vn -0.886901 0.280085 -0.367367
f 11/13/3 9/11/3 1/12/3

v -1.31149 1.20539 -1.07125
vt -0.487824 0.70296
f 12/14/3 9/11/3 11/13/3

v -1.67922 1.20539 -0.183465
vt 0.47311 0.70296
f 13/15/3 9/11/3 12/14/3

v -1.55919 1.82611 -1.90946e-016
f 13/15/3 14/10/3 9/11/3

f 14/10/3 13/15/3 8/9/3

v -1.92788 0.28292 -0.286461
vt 0.47311 -0.257974
f 15/16/3 8/9/3 13/15/3

f 8/9/3 15/16/3 1/12/3

f 1/12/3 15/16/3 11/13/3

usemtl mainFigureMaterial
vt -0.994608 0.965784
vt -0.994608 0.00485033
vt -0.0336742 0.00485033
vt -0.0336742 0.965784
f 12/17/3 11/18/3 15/19/3 13/20/3 

usemtl FrontColor
v -1.10251 1.82611 1.10251
vn -0.886901 0.280085 0.367367
f 16/10/4 14/11/4 8/12/4 7/9/4 

vt -1.10251 -1.10251
vn 0 1 -0
vt -1.10251 1.10251
vt -1.55919 1.90946e-016
f 16/21/5 9/22/5 14/23/5

v -0.871075 1.82611 0.921524
vt -0.871075 -0.921524
f 9/22/5 16/21/5 17/24/5

v -2.86419e-016 1.82611 1.55919
vt -2.86419e-016 -1.55919
f 17/24/5 16/21/5 18/25/5

vn -0.367367 0.280085 0.886901
v -1.04279 1.23807 1.31296
vt -0.460961 0.737003
f 16/11/6 19/26/6 18/10/6

v -1.14578 0.315601 1.56161
vt -0.460961 -0.223931
f 16/11/6 20/27/6 19/26/6

f 20/27/6 16/11/6 7/12/6

v -0.257995 0.315601 1.92935
vt 0.499973 -0.223931
f 7/12/6 21/28/6 20/27/6

f 6/9/6 21/28/6 7/12/6

f 21/28/6 6/9/6 18/10/6

vn 0.367367 0.280085 0.886901
v 1.10251 1.82611 1.10251
f 5/9/7 22/10/7 18/11/7 6/12/7 

v 1.56401 0.282914 1.16492
vt -0.477724 -0.25798
vn 0.886901 0.280085 0.367367
f 23/29/8 22/11/8 5/12/8

v 1.31535 1.20539 1.06192
vt -0.477724 0.702954
f 22/11/8 23/29/8 24/30/8

usemtl mainFigureMaterial
v 1.93174 0.282914 0.277131
v 1.68309 1.20539 0.174135
f 24/17/8 23/18/8 25/19/8 26/20/8 

usemtl FrontColor
vt 0.48321 -0.25798
f 23/29/8 4/9/8 25/31/8

f 4/9/8 23/29/8 5/12/8

vt 0.48321 0.702954
f 25/31/8 4/9/8 26/32/8

v 1.55919 1.82611 -0
f 27/10/8 26/32/8 4/9/8

f 27/10/8 24/30/8 26/32/8

f 22/11/8 24/30/8 27/10/8

v 1.10251 1.82611 -1.10251
vt 1.10251 1.10251
vt 1.10251 -1.10251
vt 1.55919 0
f 28/33/5 22/34/5 27/35/5

v 0.94509 1.82611 0.921524
vt 0.94509 -0.921524
f 28/33/5 29/36/5 22/34/5

v 0.94509 1.82611 -0.894642
vt 0.94509 0.894642
f 28/33/5 30/37/5 29/36/5

vt 9.54729e-017 1.55919
f 10/38/5 30/37/5 28/33/5

v -0.871075 1.82611 -0.894642
vt -0.871075 0.894642
f 10/38/5 31/39/5 30/37/5

f 9/22/5 31/39/5 10/38/5

f 31/39/5 9/22/5 17/24/5

usemtl topFigureMaterial
vn -1.8339e-016 1 6.11301e-017
f 31/17/9 17/18/9 29/19/9 30/20/9 

usemtl FrontColor
f 17/24/5 18/25/5 29/36/5

f 29/36/5 18/25/5 22/34/5

vn 0.367367 0.280085 -0.886901
v 0.181585 1.20181 -1.68113
vt 0.475578 0.699232
f 28/11/10 32/40/10 10/10/10

v 1.06937 1.20181 -1.3134
vt -0.485356 0.699232
f 28/11/10 33/41/10 32/40/10

v 1.17237 0.279341 -1.56205
vt -0.485356 -0.261702
f 28/11/10 34/42/10 33/41/10

f 34/42/10 28/11/10 3/12/10

vn 0.886901 0.280085 -0.367367
f 4/12/11 3/9/11 28/10/11 27/11/11 

v 0.284581 0.279341 -1.92978
vt 0.475578 -0.261702
f 3/12/10 35/43/10 34/42/10

f 2/9/10 35/43/10 3/12/10

f 35/43/10 2/9/10 10/10/10

f 35/43/10 10/10/10 32/40/10

usemtl secondFigureMaterial
f 33/17/10 34/18/10 35/19/10 32/20/10 

usemtl FrontColor
v -0.154998 1.23807 1.68069
vt 0.499973 0.737003
f 21/28/6 18/10/6 36/44/6

f 36/44/6 18/10/6 19/26/6

usemtl knyaz_1
f 19/17/6 20/18/6 21/19/6 36/20/6

usemtl ratnik_1
f 19/17/6 20/18/6 21/19/6 36/20/6

usemtl ratoborec_1
f 19/17/6 20/18/6 21/19/6 36/20/6

usemtl vsadnik_1
f 19/17/6 20/18/6 21/19/6 36/20/6

usemtl luchnik_1
f 19/17/6 20/18/6 21/19/6 36/20/6

usemtl volhv_1
f 19/17/6 20/18/6 21/19/6 36/20/6

usemtl helgi_1
f 19/17/6 20/18/6 21/19/6 36/20/6

usemtl secondFigureMaterial
f 19/17/6 20/18/6 21/19/6 36/20/6
